{
copyright = "Copyright Katherine Awesome 2024";
customParameters = (
{
name = description;
value = "<p>Nouveau Sans by kaw57</p>\n\n<p>Credit, though not required, would be greatly appreciated, should you use this font.</p>";
},
{
name = license;

glyphs = (
{
glyphname = "double-quarter-square-4";
layers = (
{
layerId = fs2540309;
name = Regular;
paths = (
{
closed = 1;
nodes = (
"-500.0 -500.0 LINE",
"0.0 -500.0 LINE",
"0.0 500.0 LINE",
"-500.0 500.0 LINE",
);
},
);
width = 1000;
},
);
},
{
glyphname = "quarter-ring-1";
layers = (
{
layerId = fs2540309;
name = Regular;
paths = (
{
closed = 1;
nodes = (
"1.0 -224.0 OFFCURVE",
"224.0 -1.0 OFFCURVE",
"500.0 0.0 CURVE SMOOTH",
"500.0 500.0 LINE",
"-52.0 500.0 OFFCURVE",
"-500.0 52.0 OFFCURVE",
"-500.0 -500.0 CURVE SMOOTH",
"0.0 -500.0 LINE",
);
},
);
width = 1000;
},
);
},
{
glyphname = "quarter-ring-2";
layers = (
{
layerId = fs2540309;
name = Regular;
paths = (
{
closed = 1;
nodes = (
"-224.0 0.0 OFFCURVE",
"-1.0 -224.0 OFFCURVE",
"0.0 -500.0 CURVE SMOOTH",
"500.0 -500.0 LINE",
"500.0 52.0 OFFCURVE",
"52.0 500.0 OFFCURVE",
"-500.0 500.0 CURVE SMOOTH",
"-500.0 0.0 LINE",
);
},
);
width = 1000;
},
);
},
{
glyphname = "quarter-ring-3";
layers = (
{
layerId = fs2540309;
name = Regular;
paths = (
{
closed = 1;
nodes = (
"-1.0 224.0 OFFCURVE",
"-224.0 1.0 OFFCURVE",
"-500.0 0.0 CURVE SMOOTH",
"-500.0 -500.0 LINE",
"52.0 -500.0 OFFCURVE",
"500.0 -52.0 OFFCURVE",
"500.0 500.0 CURVE SMOOTH",
"0.0 500.0 LINE",
);
},
);
width = 1000;
},
);
},
{
glyphname = "quarter-ring-4";
layers = (
{
layerId = fs2540309;
name = Regular;
paths = (
{
closed = 1;
nodes = (
"224.0 0.0 OFFCURVE",
"1.0 224.0 OFFCURVE",
"0.0 500.0 CURVE SMOOTH",
"-500.0 500.0 LINE",
"-500.0 -52.0 OFFCURVE",
"-52.0 -500.0 OFFCURVE",
"500.0 -500.0 CURVE SMOOTH",
"500.0 0.0 LINE",
);
},
);
width = 1000;
},
);
},
{
glyphname = "double-quarter-square-3";
layers = (
{
layerId = fs2540309;
name = Regular;
paths = (
{
closed = 1;
nodes = (
"-500.0 -500.0 LINE",
"500.0 -500.0 LINE",
"500.0 0.0 LINE",
"-500.0 0.0 LINE",
);
},
);
width = 1000;
},
);
},
{
glyphname = "double-quarter-square-1";
layers = (
{
layerId = fs2540309;
name = Regular;
paths = (
{
closed = 1;
nodes = (
"-500.0 0.0 LINE",
"500.0 0.0 LINE",
"500.0 500.0 LINE",
"-500.0 500.0 LINE",
);
},
);
width = 1000;
},
);
},
{
glyphname = "inverted-half-width-triangle-3";
layers = (
{
layerId = fs2540309;
name = Regular;
paths = (
{
closed = 1;
nodes = (
"500.0 -500.0 LINE",
"500.0 500.0 LINE",
"0.0 500.0 LINE",
"-500.0 -500.0 LINE",
);
},
);
width = 1000;
},
);
},
{
glyphname = "inverted-half-width-triangle-1";
layers = (
{
layerId = fs2540309;
name = Regular;
paths = (
{
closed = 1;
nodes = (
"-500.0 500.0 LINE",
"-500.0 -500.0 LINE",
"0.0 -500.0 LINE",
"500.0 500.0 LINE",
);
},
);
width = 1000;
},
);
},
{
glyphname = "half-width-triangle-9";
layers = (
{
layerId = fs2540309;
name = Regular;
paths = (
{
closed = 1;
nodes = (
"-500.0 500.0 LINE",
"-500.0 -500.0 LINE",
"0.0 -500.0 LINE",
);
},
);
width = 1000;
},
);
},
{
glyphname = "half-width-triangle-3";
layers = (
{
layerId = fs2540309;
name = Regular;
paths = (
{
closed = 1;
nodes = (
"0.0 500.0 LINE",
"-500.0 500.0 LINE",
"-500.0 -500.0 LINE",
);
},
);
width = 1000;
},
);
},
{
glyphname = "diagonal-4";
layers = (
{
layerId = fs2540309;
name = Regular;
paths = (
{
closed = 1;
nodes = (
"500.0 -500.0 LINE",
"0.0 500.0 LINE",
"-500.0 500.0 LINE",
"0.0 -500.0 LINE",
);
},
);
width = 1000;
},
);
},
{
glyphname = "quarter-triangle-4";
layers = (
{
layerId = fs2540309;
name = Regular;
paths = (
{
closed = 1;
nodes = (
"500.0 0.0 LINE",
"500.0 500.0 LINE",
"0.0 500.0 LINE",
);
},
);
width = 1000;
},
);
},
{
glyphname = "half-width-triangle-11";
layers = (
{
layerId = fs2540309;
name = Regular;
paths = (
{
closed = 1;
nodes = (
"500.0 -500.0 LINE",
"500.0 500.0 LINE",
"0.0 500.0 LINE",
);
},
);
width = 1000;
},
);
},
{
glyphname = "inverted-isosceles-2";
layers = (
{
layerId = fs2540309;
name = Regular;
paths = (
{
closed = 1;
nodes = (
"0.0 -500.0 LINE",
"500.0 -500.0 LINE",
"500.0 500.0 LINE",
);
},
{
closed = 1;
nodes = (
"-500.0 500.0 LINE",
"-500.0 -500.0 LINE",
"0.0 -500.0 LINE",
);
},
);
width = 1000;
},
);
},
{
glyphname = "half-width-triangle-1";
layers = (
{
layerId = fs2540309;
name = Regular;
paths = (
{
closed = 1;
nodes = (
"0.0 -500.0 LINE",
"500.0 -500.0 LINE",
"500.0 500.0 LINE",
);
},
);
width = 1000;
},
);
},
{
glyphname = "quarter-triangle-3";
layers = (
{
layerId = fs2540309;
name = Regular;
paths = (
{
closed = 1;
nodes = (
"0.0 500.0 LINE",
"-500.0 500.0 LINE",
"-500.0 0.0 LINE",
);
},
);
width = 1000;
},
);
},
{
glyphname = "quarter-triangle-1";
layers = (
{
layerId = fs2540309;
name = Regular;
paths = (
{
closed = 1;
nodes = (
"0.0 -500.0 LINE",
"500.0 -500.0 LINE",
"500.0 0.0 LINE",
);
},
);
width = 1000;
},
);
},
{
glyphname = "quarter-triangle-2";
layers = (
{
layerId = fs2540309;
name = Regular;
paths = (
{
closed = 1;
nodes = (
"-500.0 0.0 LINE",
"-500.0 -500.0 LINE",
"0.0 -500.0 LINE",
);
},
);
width = 1000;
},
);
},
{
glyphname = pixel;
layers = (
{
layerId = fs2540309;
name = Regular;
paths = (
{
closed = 1;
nodes = (
"-500.0 -500.0 LINE",
"500.0 -500.0 LINE",
"500.0 500.0 LINE",
"-500.0 500.0 LINE",
);
},
);
width = 1000;
},
);
},
{
glyphname = "round-corner-2";
layers = (
{
layerId = fs2540309;
name = Regular;
paths = (
{
closed = 1;
nodes = (
"500.0 -500.0 LINE",
"500.0 52.0 OFFCURVE",
"53.0 500.0 OFFCURVE",
"-500.0 500.0 CURVE SMOOTH",
"-500.0 -500.0 LINE",
);
},
);
width = 1000;
},
);
},
{
glyphname = "round-corner-1";
layers = (
{
layerId = fs2540309;
name = Regular;
paths = (
{
closed = 1;
nodes = (
"500.0 500.0 LINE",
"-52.0 500.0 OFFCURVE",
"-500.0 53.0 OFFCURVE",
"-500.0 -500.0 CURVE SMOOTH",
"500.0 -500.0 LINE",
);
},
);
width = 1000;
},
);
},
{
glyphname = "round-corner-4";
layers = (
{
layerId = fs2540309;
name = Regular;
paths = (
{
closed = 1;
nodes = (
"-500.0 500.0 LINE",
"-500.0 -52.0 OFFCURVE",
"-53.0 -500.0 OFFCURVE",
"500.0 -500.0 CURVE SMOOTH",
"500.0 500.0 LINE",
);
},
);
width = 1000;
},
);
},
{
glyphname = "round-corner-3";
layers = (
{
layerId = fs2540309;
name = Regular;
paths = (
{
closed = 1;
nodes = (
"-500.0 -500.0 LINE",
"52.0 -500.0 OFFCURVE",
"500.0 -53.0 OFFCURVE",
"500.0 500.0 CURVE SMOOTH",
"-500.0 500.0 LINE",
);
},
);
width = 1000;
},
);
},
{
glyphname = "inverse-round-corner-4";
layers = (
{
layerId = fs2540309;
name = Regular;
paths = (
{
closed = 1;
nodes = (
"-500.0 -500.0 LINE",
"500.0 -500.0 LINE",
"-52.0 -500.0 OFFCURVE",
"-500.0 -52.0 OFFCURVE",
"-500.0 500.0 CURVE SMOOTH",
);
},
);
width = 1000;
},
);
},
{
glyphname = "inverse-round-corner-1";
layers = (
{
layerId = fs2540309;
name = Regular;
paths = (
{
closed = 1;
nodes = (
"-500.0 500.0 LINE",
"-500.0 -500.0 LINE",
"-500.0 52.0 OFFCURVE",
"-52.0 500.0 OFFCURVE",
"500.0 500.0 CURVE SMOOTH",
);
},
);
width = 1000;
},
);
},
{
glyphname = "inverse-round-corner-3";
layers = (
{
layerId = fs2540309;
name = Regular;
paths = (
{
closed = 1;
nodes = (
"500.0 -500.0 LINE",
"500.0 500.0 LINE",
"500.0 -52.0 OFFCURVE",
"52.0 -500.0 OFFCURVE",
"-500.0 -500.0 CURVE SMOOTH",
);
},
);
width = 1000;
},
);
},
{
glyphname = "inverse-round-corner-2";
layers = (
{
layerId = fs2540309;
name = Regular;
paths = (
{
closed = 1;
nodes = (
"500.0 500.0 LINE",
"-500.0 500.0 LINE",
"52.0 500.0 OFFCURVE",
"500.0 52.0 OFFCURVE",
"500.0 -500.0 CURVE SMOOTH",
);
},
);
width = 1000;
},
);
},
{
glyphname = "cut-corner-1";
layers = (
{
layerId = fs2540309;
name = Regular;
paths = (
{
closed = 1;
nodes = (
"-500.0 -500.0 LINE",
"500.0 -500.0 LINE",
"500.0 500.0 LINE",
);
},
);
width = 1000;
},
);
},
{
glyphname = "chipped-pixel-3";
layers = (
{
layerId = fs2540309;
name = Regular;
paths = (
{
closed = 1;
nodes = (
"-500.0 500.0 LINE",
"-500.0 -500.0 LINE",
"0.0 -500.0 LINE",
"500.0 0.0 LINE",
"500.0 500.0 LINE",
);
},
);
width = 1000;
},
);
},
{
glyphname = "cut-corner-3";
layers = (
{
layerId = fs2540309;
name = Regular;
paths = (
{
closed = 1;
nodes = (
"500.0 500.0 LINE",
"-500.0 500.0 LINE",
"-500.0 -500.0 LINE",
);
},
);
width = 1000;
},
);
},
{
glyphname = "chipped-pixel-1";
layers = (
{
layerId = fs2540309;
name = Regular;
paths = (
{
closed = 1;
nodes = (
"500.0 500.0 LINE",
"0.0 500.0 LINE",
"-500.0 0.0 LINE",
"-500.0 -500.0 LINE",
"500.0 -500.0 LINE",
);
},
);
width = 1000;
},
);
},
{
glyphname = "offset-rounded-end-3";
layers = (
{
layerId = fs2540309;
name = Regular;
paths = (
{
closed = 1;
nodes = (
"500.0 -224.0 OFFCURVE",
"276.0 0.0 OFFCURVE",
"0.0 0.0 CURVE SMOOTH",
"0.0 0.0 LINE",
"276.0 0.0 OFFCURVE",
"500.0 224.0 OFFCURVE",
"500.0 500.0 CURVE SMOOTH",
"-500.0 500.0 LINE",
"-500.0 -500.0 LINE",
"500.0 -500.0 LINE",
);
},
);
width = 1000;
},
);
},
{
glyphname = "offset-rounded-end-1";
layers = (
{
layerId = fs2540309;
name = Regular;
paths = (
{
closed = 1;
nodes = (
"500.0 500.0 LINE",
"-500.0 500.0 LINE",
"-500.0 224.0 OFFCURVE",
"-276.0 0.0 OFFCURVE",
"0.0 0.0 CURVE SMOOTH",
"0.0 0.0 LINE",
"-276.0 0.0 OFFCURVE",
"-500.0 -224.0 OFFCURVE",
"-500.0 -500.0 CURVE SMOOTH",
"500.0 -500.0 LINE",
);
},
);
width = 1000;
},
);
},
{
glyphname = "cut-corner-4";
layers = (
{
layerId = fs2540309;
name = Regular;
paths = (
{
closed = 1;
nodes = (
"500.0 -500.0 LINE",
"500.0 500.0 LINE",
"-500.0 500.0 LINE",
);
},
);
width = 1000;
},
);
},
{
glyphname = "cut-corner-2";
layers = (
{
layerId = fs2540309;
name = Regular;
paths = (
{
closed = 1;
nodes = (
"-500.0 500.0 LINE",
"-500.0 -500.0 LINE",
"500.0 -500.0 LINE",
);
},
);
width = 1000;
},
);
},
{
glyphname = "chipped-pixel-4";
layers = (
{
layerId = fs2540309;
name = Regular;
paths = (
{
closed = 1;
nodes = (
"-500.0 500.0 LINE",
"-500.0 0.0 LINE",
"0.0 -500.0 LINE",
"500.0 -500.0 LINE",
"500.0 500.0 LINE",
);
},
);
width = 1000;
},
);
},
{
glyphname = "house-brick-3";
layers = (
{
layerId = fs2540309;
name = Regular;
paths = (
{
closed = 1;
nodes = (
"-500.0 0.0 LINE",
"0.0 -500.0 LINE",
"500.0 0.0 LINE",
"500.0 500.0 LINE",
"-500.0 500.0 LINE",
);
},
);
width = 1000;
},
);
},
{
glyphname = "triple-square-quarters-2";
layers = (
{
layerId = fs2540309;
name = Regular;
paths = (
{
closed = 1;
nodes = (
"0.0 0.0 LINE",
"-500.0 496.0 LINE",
"-500.0 -500.0 LINE",
"500.0 -500.0 LINE",
"500.0 500.0 LINE",
);
},
);
width = 1000;
},
);
},
{
glyphname = "chipped-pixel-2";
layers = (
{
layerId = fs2540309;
name = Regular;
paths = (
{
closed = 1;
nodes = (
"-500.0 -500.0 LINE",
"500.0 -500.0 LINE",
"500.0 0.0 LINE",
"0.0 500.0 LINE",
"-500.0 500.0 LINE",
);
},
);
width = 1000;
},
);
},
{
glyphname = "inverted-half-width-triangle-5";
layers = (
{
layerId = fs2540309;
name = Regular;
paths = (
{
closed = 1;
nodes = (
"-500.0 500.0 LINE",
"0.0 -500.0 LINE",
"500.0 -500.0 LINE",
"500.0 500.0 LINE",
);
},
);
width = 1000;
},
);
},
{
glyphname = "inverted-half-width-triangle-7";
layers = (
{
layerId = fs2540309;
name = Regular;
paths = (
{
closed = 1;
nodes = (
"500.0 -500.0 LINE",
"0.0 500.0 LINE",
"-500.0 500.0 LINE",
"-500.0 -500.0 LINE",
);
},
);
width = 1000;
},
);
},
{
glyphname = "inverted-isosceles-4";
layers = (
{
layerId = fs2540309;
name = Regular;
paths = (
{
closed = 1;
nodes = (
"0.0 500.0 LINE",
"-500.0 500.0 LINE",
"-500.0 -500.0 LINE",
);
},
{
closed = 1;
nodes = (
"500.0 -500.0 LINE",
"500.0 500.0 LINE",
"0.0 500.0 LINE",
);
},
);
width = 1000;
},
);
},
{
glyphname = "isosceles-4";
layers = (
{
layerId = fs2540309;
name = Regular;
paths = (
{
closed = 1;
nodes = (
"0.0 500.0 LINE",
"-500.0 -500.0 LINE",
"500.0 -500.0 LINE",
);
},
);
width = 1000;
},
);
},
{
glyphname = "triple-square-quarters-4";
layers = (
{
layerId = fs2540309;
name = Regular;
paths = (
{
closed = 1;
nodes = (
"0.0 0.0 LINE",
"500.0 -496.0 LINE",
"500.0 500.0 LINE",
"-500.0 500.0 LINE",
"-500.0 -500.0 LINE",
);
},
);
width = 1000;
},
);
},
{
glyphname = "half-rounded-corner-1";
layers = (
{
layerId = fs2540309;
name = Regular;
paths = (
{
closed = 1;
nodes = (
"500.0 500.0 LINE",
"0.0 500.0 LINE",
"-276.0 500.0 OFFCURVE",
"-500.0 275.0 OFFCURVE",
"-500.0 -1.0 CURVE SMOOTH",
"-500.0 -501.0 LINE",
"500.0 -501.0 LINE",
);
},
);
width = 1000;
},
);
},
{
glyphname = "half-rounded-corner-4";
layers = (
{
layerId = fs2540309;
name = Regular;
paths = (
{
closed = 1;
nodes = (
"-500.0 0.0 LINE",
"-500.0 -276.0 OFFCURVE",
"-276.0 -500.0 OFFCURVE",
"0.0 -500.0 CURVE SMOOTH",
"500.0 -500.0 LINE",
"500.0 500.0 LINE",
"-500.0 500.0 LINE",
);
},
);
width = 1000;
},
);
},
{
glyphname = "half-rounded-corner-3";
layers = (
{
layerId = fs2540309;
name = Regular;
paths = (
{
closed = 1;
nodes = (
"0.0 -500.0 LINE",
"276.0 -500.0 OFFCURVE",
"500.0 -276.0 OFFCURVE",
"500.0 0.0 CURVE SMOOTH",
"500.0 500.0 LINE",
"-500.0 500.0 LINE",
"-500.0 -500.0 LINE",
);
},
);
width = 1000;
},
);
},
{
glyphname = "half-rounded-corner-2";
layers = (
{
layerId = fs2540309;
name = Regular;
paths = (
{
closed = 1;
nodes = (
"500.0 0.0 LINE",
"500.0 276.0 OFFCURVE",
"276.0 500.0 OFFCURVE",
"0.0 500.0 CURVE SMOOTH",
"-500.0 500.0 LINE",
"-500.0 -500.0 LINE",
"500.0 -500.0 LINE",
);
},
);
width = 1000;
},
);
},
{
glyphname = "inverse-rounded-end-4";
layers = (
{
layerId = fs2540309;
name = Regular;
paths = (
{
closed = 1;
nodes = (
"276.0 500.0 OFFCURVE",
"500.0 276.0 OFFCURVE",
"500.0 0.0 CURVE SMOOTH",
"500.0 500.0 LINE",
"0.0 500.0 LINE",
);
},
{
closed = 1;
nodes = (
"500.0 -276.0 OFFCURVE",
"276.0 -500.0 OFFCURVE",
"0.0 -500.0 CURVE SMOOTH",
"500.0 -500.0 LINE",
"500.0 0.0 LINE",
);
},
);
width = 1000;
},
);
},
{
glyphname = "inverse-rounded-end-2";
layers = (
{
layerId = fs2540309;
name = Regular;
paths = (
{
closed = 1;
nodes = (
"-276.0 -500.0 OFFCURVE",
"-500.0 -276.0 OFFCURVE",
"-500.0 0.0 CURVE SMOOTH",
"-500.0 -500.0 LINE",
"0.0 -500.0 LINE",
);
},
{
closed = 1;
nodes = (
"-500.0 276.0 OFFCURVE",
"-276.0 500.0 OFFCURVE",
"0.0 500.0 CURVE SMOOTH",
"-500.0 500.0 LINE",
"-500.0 0.0 LINE",
);
},
);
width = 1000;
},
);
},
{
glyphname = "inverse-half-rounded-corner-1";
layers = (
{
layerId = fs2540309;
name = Regular;
paths = (
{
closed = 1;
nodes = (
"-500.0 500.0 LINE",
"-500.0 0.0 LINE",
"-500.0 276.0 OFFCURVE",
"-276.0 500.0 OFFCURVE",
"0.0 500.0 CURVE SMOOTH",
);
},
);
width = 1000;
},
);
},
{
glyphname = "inverse-half-rounded-corner-3";
layers = (
{
layerId = fs2540309;
name = Regular;
paths = (
{
closed = 1;
nodes = (
"500.0 -500.0 LINE",
"500.0 0.0 LINE",
"500.0 -276.0 OFFCURVE",
"276.0 -500.0 OFFCURVE",
"0.0 -500.0 CURVE SMOOTH",
);
},
);
width = 1000;
},
);
},
{
glyphname = "triple-square-quarters-3";
layers = (
{
layerId = fs2540309;
name = Regular;
paths = (
{
closed = 1;
nodes = (
"0.0 0.0 LINE",
"496.0 500.0 LINE",
"-500.0 500.0 LINE",
"-500.0 -500.0 LINE",
"500.0 -500.0 LINE",
);
},
);
width = 1000;
},
);
},
{
glyphname = "inverse-half-rounded-corner-4";
layers = (
{
layerId = fs2540309;
name = Regular;
paths = (
{
closed = 1;
nodes = (
"-500.0 -500.0 LINE",
"0.0 -500.0 LINE",
"-276.0 -500.0 OFFCURVE",
"-500.0 -276.0 OFFCURVE",
"-500.0 0.0 CURVE SMOOTH",
);
},
);
width = 1000;
},
);
},
{
glyphname = "offset-rounded-end-2";
layers = (
{
layerId = fs2540309;
name = Regular;
paths = (
{
closed = 1;
nodes = (
"224.0 500.0 OFFCURVE",
"0.0 276.0 OFFCURVE",
"0.0 0.0 CURVE SMOOTH",
"0.0 0.0 LINE",
"0.0 276.0 OFFCURVE",
"-224.0 500.0 OFFCURVE",
"-500.0 500.0 CURVE SMOOTH",
"-500.0 -500.0 LINE",
"500.0 -500.0 LINE",
"500.0 500.0 LINE",
);
},
);
width = 1000;
},
);
},
{
glyphname = "inverse-half-rounded-corner-2";
layers = (
{
layerId = fs2540309;
name = Regular;
paths = (
{
closed = 1;
nodes = (
"500.0 500.0 LINE",
"0.0 500.0 LINE",
"276.0 500.0 OFFCURVE",
"500.0 276.0 OFFCURVE",
"500.0 0.0 CURVE SMOOTH",
);
},
);
width = 1000;
},
);
},
{
glyphname = "single-square-quarter-4";
layers = (
{
layerId = fs2540309;
name = Regular;
paths = (
{
closed = 1;
nodes = (
"0.0 0.0 LINE",
"-500.0 -500.0 LINE",
"500.0 -500.0 LINE",
);
},
);
width = 1000;
},
);
},
{
glyphname = "triple-square-quarters-1";
layers = (
{
layerId = fs2540309;
name = Regular;
paths = (
{
closed = 1;
nodes = (
"0.0 0.0 LINE",
"-496.0 -500.0 LINE",
"500.0 -500.0 LINE",
"500.0 500.0 LINE",
"-500.0 500.0 LINE",
);
},
);
width = 1000;
},
);
},
{
glyphname = "triple-rounded-block-4";
layers = (
{
layerId = fs2540309;
name = Regular;
paths = (
{
closed = 1;
nodes = (
"500.0 276.0 OFFCURVE",
"276.0 500.0 OFFCURVE",
"0.0 500.0 CURVE SMOOTH",
"-276.0 500.0 OFFCURVE",
"-500.0 276.0 OFFCURVE",
"-500.0 0.0 CURVE SMOOTH",
"-500.0 -276.0 OFFCURVE",
"-276.0 -500.0 OFFCURVE",
"0.0 -500.0 CURVE SMOOTH",
"500.0 -500.0 LINE",
"500.0 0.0 LINE",
);
},
);
width = 1000;
},
);
},
{
glyphname = circle;
layers = (
{
layerId = fs2540309;
name = Regular;
paths = (
{
closed = 1;
nodes = (
"-500.0 0.0 CURVE SMOOTH",
"-500.0 -276.0 OFFCURVE",
"-276.0 -500.0 OFFCURVE",
"0.0 -500.0 CURVE SMOOTH",
"276.0 -500.0 OFFCURVE",
"500.0 -276.0 OFFCURVE",
"500.0 0.0 CURVE SMOOTH",
"500.0 276.0 OFFCURVE",
"276.0 500.0 OFFCURVE",
"0.0 500.0 CURVE SMOOTH",
"-276.0 500.0 OFFCURVE",
"-500.0 276.0 OFFCURVE",
"-500.0 0.0 CURVE SMOOTH",
);
},
);
width = 1000;
},
);
},
{
glyphname = "triple-rounded-block-2";
layers = (
{
layerId = fs2540309;
name = Regular;
paths = (
{
closed = 1;
nodes = (
"-500.0 -276.0 OFFCURVE",
"-276.0 -500.0 OFFCURVE",
"0.0 -500.0 CURVE SMOOTH",
"276.0 -500.0 OFFCURVE",
"500.0 -276.0 OFFCURVE",
"500.0 0.0 CURVE SMOOTH",
"500.0 276.0 OFFCURVE SMOOTH",
"276.0 500.0 OFFCURVE",
"0.0 500.0 CURVE SMOOTH",
"-500.0 500.0 LINE",
"-500.0 0.0 LINE",
);
},
);
width = 1000;
},
);
},
{
glyphname = "double-quarter-square-2";
layers = (
{
layerId = fs2540309;
name = Regular;
paths = (
{
closed = 1;
nodes = (
"0.0 -500.0 LINE",
"500.0 -500.0 LINE",
"500.0 500.0 LINE",
"0.0 500.0 LINE",
);
},
);
width = 1000;
},
);
},
{
glyphname = "half-circle-4";
layers = (
{
layerId = fs2540309;
name = Regular;
paths = (
{
closed = 1;
nodes = (
"-276.0 0.0 OFFCURVE",
"-500.0 -224.0 OFFCURVE",
"-500.0 -500.0 CURVE SMOOTH",
"500.0 -500.0 LINE",
"500.0 -224.0 OFFCURVE",
"276.0 0.0 OFFCURVE",
"0.0 0.0 CURVE SMOOTH",
);
},
);
width = 1000;
},
);
},
{
glyphname = "half-circle-2";
layers = (
{
layerId = fs2540309;
name = Regular;
paths = (
{
closed = 1;
nodes = (
"276.0 0.0 OFFCURVE",
"500.0 224.0 OFFCURVE",
"500.0 500.0 CURVE SMOOTH",
"-500.0 500.0 LINE",
"-500.0 224.0 OFFCURVE",
"-276.0 0.0 OFFCURVE",
"0.0 0.0 CURVE SMOOTH",
);
},
);
width = 1000;
},
);
},
{
glyphname = "house-brick-1";
layers = (
{
layerId = fs2540309;
name = Regular;
paths = (
{
closed = 1;
nodes = (
"500.0 0.0 LINE",
"0.0 500.0 LINE",
"-500.0 0.0 LINE",
"-500.0 -500.0 LINE",
"500.0 -500.0 LINE",
);
},
);
width = 1000;
},
);
},
{
glyphname = "diagonal-1";
layers = (
{
layerId = fs2540309;
name = Regular;
paths = (
{
closed = 1;
nodes = (
"0.0 500.0 LINE",
"-500.0 -500.0 LINE",
"0.0 -500.0 LINE",
"500.0 500.0 LINE",
);
},
);
width = 1000;
},
);
},
{
glyphname = "half-rounded-corner-3";
layers = (
{
layerId = fs2540309;
name = Regular;
paths = (
{
closed = 1;
nodes = (
"0.0 -500.0 LINE",
"276.0 -500.0 OFFCURVE",
"500.0 -276.0 OFFCURVE",
"500.0 0.0 CURVE SMOOTH",
"500.0 500.0 LINE",
"-500.0 500.0 LINE",
"-500.0 -500.0 LINE",
);
},
);
width = 1000;
},
);
},
{
glyphname = "half-circle-3";
layers = (
{
layerId = fs2540309;
name = Regular;
paths = (
{
closed = 1;
nodes = (
"0.0 -276.0 OFFCURVE",
"224.0 -500.0 OFFCURVE",
"500.0 -500.0 CURVE SMOOTH",
"500.0 500.0 LINE",
"224.0 500.0 OFFCURVE",
"0.0 276.0 OFFCURVE",
"0.0 0.0 CURVE SMOOTH",
);
},
);
width = 1000;
},
);
},
{
glyphname = "half-circle-1";
layers = (
{
layerId = fs2540309;
name = Regular;
paths = (
{
closed = 1;
nodes = (
"0.0 276.0 OFFCURVE",
"-224.0 500.0 OFFCURVE",
"-500.0 500.0 CURVE SMOOTH",
"-500.0 -500.0 LINE",
"-224.0 -500.0 OFFCURVE",
"0.0 -276.0 OFFCURVE",
"0.0 0.0 CURVE SMOOTH",
);
},
);
width = 1000;
},
);
},
{
glyphname = "offset-rounded-end-4";
layers = (
{
layerId = fs2540309;
name = Regular;
paths = (
{
closed = 1;
nodes = (
"-225.0 -500.0 OFFCURVE",
"-1.0 -276.0 OFFCURVE",
"-1.0 0.0 CURVE SMOOTH",
"-1.0 0.0 LINE",
"-1.0 -276.0 OFFCURVE",
"223.0 -500.0 OFFCURVE",
"500.0 -500.0 CURVE SMOOTH",
"500.0 500.0 LINE",
"-500.0 500.0 LINE",
"-501.0 -500.0 LINE",
);
},
);
width = 1000;
},
);
},
{
glyphname = "circle-with-staggered-round-punch-2";
layers = (
{
layerId = fs2540309;
name = Regular;
paths = (
{
closed = 1;
nodes = (
"-500.0 0.0 CURVE SMOOTH",
"-500.0 -276.0 OFFCURVE",
"-276.0 -500.0 OFFCURVE",
"0.0 -500.0 CURVE SMOOTH",
"276.0 -500.0 OFFCURVE",
"500.0 -276.0 OFFCURVE",
"500.0 0.0 CURVE SMOOTH",
"500.0 276.0 OFFCURVE",
"276.0 500.0 OFFCURVE",
"0.0 500.0 CURVE SMOOTH",
"-276.0 500.0 OFFCURVE",
"-500.0 276.0 OFFCURVE",
"-500.0 0.0 CURVE SMOOTH",
);
},
{
closed = 1;
nodes = (
"-300.0 0.0 CURVE SMOOTH",
"-300.0 166.0 OFFCURVE",
"-166.0 300.0 OFFCURVE",
"0.0 300.0 CURVE SMOOTH",
"166.0 300.0 OFFCURVE",
"300.0 166.0 OFFCURVE",
"300.0 0.0 CURVE SMOOTH",
"300.0 -166.0 OFFCURVE",
"166.0 -300.0 OFFCURVE",
"0.0 -300.0 CURVE SMOOTH",
"-166.0 -300.0 OFFCURVE",
"-300.0 -166.0 OFFCURVE",
"-300.0 0.0 CURVE SMOOTH",
);
},
);
width = 1000;
},
);
},
{
glyphname = "inverse-rounded-end-1";
layers = (
{
layerId = fs2540309;
name = Regular;
paths = (
{
closed = 1;
nodes = (
"500.0 -276.0 OFFCURVE",
"276.0 -500.0 OFFCURVE",
"0.0 -500.0 CURVE SMOOTH",
"500.0 -500.0 LINE",
"500.0 0.0 LINE",
);
},
{
closed = 1;
nodes = (
"-276.0 -500.0 OFFCURVE",
"-500.0 -276.0 OFFCURVE",
"-500.0 0.0 CURVE SMOOTH",
"-500.0 -500.0 LINE",
"0.0 -500.0 LINE",
);
},
);
width = 1000;
},
);
},
{
glyphname = "inverse-rounded-end-3";
layers = (
{
layerId = fs2540309;
name = Regular;
paths = (
{
closed = 1;
nodes = (
"-500.0 276.0 OFFCURVE",
"-276.0 500.0 OFFCURVE",
"0.0 500.0 CURVE SMOOTH",
"-500.0 500.0 LINE",
"-500.0 0.0 LINE",
);
},
{
closed = 1;
nodes = (
"276.0 500.0 OFFCURVE",
"500.0 276.0 OFFCURVE",
"500.0 0.0 CURVE SMOOTH",
"500.0 500.0 LINE",
"0.0 500.0 LINE",
);
},
);
width = 1000;
},
);
},
{
glyphname = "single-quarter-square-4";
layers = (
{
layerId = fs2540309;
name = Regular;
paths = (
{
closed = 1;
nodes = (
"-500.0 -500.0 LINE",
"0.0 -500.0 LINE",
"0.0 0.0 LINE",
"-500.0 0.0 LINE",
);
},
);
width = 1000;
},
);
},
{
glyphname = "single-quarter-square-3";
layers = (
{
layerId = fs2540309;
name = Regular;
paths = (
{
closed = 1;
nodes = (
"0.0 -500.0 LINE",
"500.0 -500.0 LINE",
"500.0 0.0 LINE",
"0.0 0.0 LINE",
);
},
);
width = 1000;
},
);
},
{
glyphname = "inverted-half-width-triangle-2";
layers = (
{
layerId = fs2540309;
name = Regular;
paths = (
{
closed = 1;
nodes = (
"500.0 500.0 LINE",
"-500.0 500.0 LINE",
"-500.0 0.0 LINE",
"500.0 -500.0 LINE",
);
},
);
width = 1000;
},
);
},
{
glyphname = "triple-quarter-square-2";
layers = (
{
layerId = fs2540309;
name = Regular;
paths = (
{
closed = 1;
nodes = (
"-500.0 500.0 LINE",
"-500.0 0.0 LINE",
"0.0 0.0 LINE",
"0.0 -500.0 LINE",
"500.0 -500.0 LINE",
"500.0 500.0 LINE",
);
},
);
width = 1000;
},
);
},
{
glyphname = "diagonal-3";
layers = (
{
layerId = fs2540309;
name = Regular;
paths = (
{
closed = 1;
nodes = (
"500.0 500.0 LINE",
"-500.0 0.0 LINE",
"-500.0 -500.0 LINE",
"500.0 0.0 LINE",
);
},
);
width = 1000;
},
);
},
{
glyphname = "diagonal-2";
layers = (
{
layerId = fs2540309;
name = Regular;
paths = (
{
closed = 1;
nodes = (
"500.0 0.0 LINE",
"-500.0 500.0 LINE",
"-500.0 0.0 LINE",
"500.0 -500.0 LINE",
);
},
);
width = 1000;
},
);
},
{
glyphname = "single-quarter-square-2";
layers = (
{
layerId = fs2540309;
name = Regular;
paths = (
{
closed = 1;
nodes = (
"0.0 0.0 LINE",
"500.0 0.0 LINE",
"500.0 500.0 LINE",
"0.0 500.0 LINE",
);
},
);
width = 1000;
},
);
},
{
glyphname = "triple-quarter-square-4";
layers = (
{
layerId = fs2540309;
name = Regular;
paths = (
{
closed = 1;
nodes = (
"500.0 -500.0 LINE",
"500.0 0.0 LINE",
"0.0 0.0 LINE",
"0.0 500.0 LINE",
"-500.0 500.0 LINE",
"-500.0 -500.0 LINE",
);
},
);
width = 1000;
},
);
},
{
glyphname = "triple-quarter-square-1";
layers = (
{
layerId = fs2540309;
name = Regular;
paths = (
{
closed = 1;
nodes = (
"-500.0 -500.0 LINE",
"0.0 -500.0 LINE",
"0.0 0.0 LINE",
"500.0 0.0 LINE",
"500.0 500.0 LINE",
"-500.0 500.0 LINE",
);
},
);
width = 1000;
},
);
},
{
glyphname = "isosceles-2";
layers = (
{
layerId = fs2540309;
name = Regular;
paths = (
{
closed = 1;
nodes = (
"0.0 -500.0 LINE",
"500.0 500.0 LINE",
"-500.0 500.0 LINE",
);
},
);
width = 1000;
},
);
},
{
glyphname = "opposite-half-width-triangle-1";
layers = (
{
layerId = fs2540309;
name = Regular;
paths = (
{
closed = 1;
nodes = (
"0.0 500.0 LINE",
"-500.0 500.0 LINE",
"-500.0 -500.0 LINE",
);
},
{
closed = 1;
nodes = (
"0.0 -500.0 LINE",
"500.0 -500.0 LINE",
"500.0 500.0 LINE",
);
},
);
width = 1000;
},
);
},
{
glyphname = "triple-rounded-block-2";
layers = (
{
layerId = fs2540309;
name = Regular;
paths = (
{
closed = 1;
nodes = (
"-500.0 -276.0 OFFCURVE",
"-276.0 -500.0 OFFCURVE",
"0.0 -500.0 CURVE SMOOTH",
"276.0 -500.0 OFFCURVE",
"500.0 -276.0 OFFCURVE",
"500.0 0.0 CURVE SMOOTH",
"500.0 276.0 OFFCURVE SMOOTH",
"276.0 500.0 OFFCURVE",
"0.0 500.0 CURVE SMOOTH",
"-500.0 500.0 LINE",
"-500.0 0.0 LINE",
);
},
);
width = 1000;
},
);
},
{
glyphname = "triple-rounded-block-4";
layers = (
{
layerId = fs2540309;
name = Regular;
paths = (
{
closed = 1;
nodes = (
"500.0 276.0 OFFCURVE",
"276.0 500.0 OFFCURVE",
"0.0 500.0 CURVE SMOOTH",
"-276.0 500.0 OFFCURVE",
"-500.0 276.0 OFFCURVE",
"-500.0 0.0 CURVE SMOOTH",
"-500.0 -276.0 OFFCURVE",
"-276.0 -500.0 OFFCURVE",
"0.0 -500.0 CURVE SMOOTH",
"500.0 -500.0 LINE",
"500.0 0.0 LINE",
);
},
);
width = 1000;
},
);
},
{
glyphname = "triple-rounded-block-1";
layers = (
{
layerId = fs2540309;
name = Regular;
paths = (
{
closed = 1;
nodes = (
"276.0 -500.0 OFFCURVE",
"500.0 -276.0 OFFCURVE",
"500.0 0.0 CURVE SMOOTH",
"500.0 276.0 OFFCURVE",
"276.0 500.0 OFFCURVE",
"0.0 500.0 CURVE SMOOTH",
"-276.0 500.0 OFFCURVE",
"-500.0 276.0 OFFCURVE",
"-500.0 0.0 CURVE SMOOTH",
"-500.0 -500.0 LINE",
"0.0 -500.0 LINE",
);
},
);
width = 1000;
},
);
},
{
glyphname = "half-width-triangle-4";
layers = (
{
layerId = fs2540309;
name = Regular;
paths = (
{
closed = 1;
nodes = (
"500.0 0.0 LINE",
"500.0 500.0 LINE",
"-500.0 500.0 LINE",
);
},
);
width = 1000;
},
);
},
{
glyphname = "half-width-triangle-12";
layers = (
{
layerId = fs2540309;
name = Regular;
paths = (
{
closed = 1;
nodes = (
"500.0 500.0 LINE",
"-500.0 500.0 LINE",
"-500.0 0.0 LINE",
);
},
);
width = 1000;
},
);
},
{
glyphname = "inverse-circle";
layers = (
{
layerId = fs2540309;
name = Regular;
paths = (
{
closed = 1;
nodes = (
"-500.0 -500.0 LINE",
"0.0 -500.0 LINE",
"-276.0 -500.0 OFFCURVE",
"-500.0 -276.0 OFFCURVE",
"-500.0 0.0 CURVE SMOOTH",
);
},
{
closed = 1;
nodes = (
"-500.0 500.0 LINE",
"-500.0 0.0 LINE",
"-500.0 276.0 OFFCURVE",
"-276.0 500.0 OFFCURVE",
"0.0 500.0 CURVE SMOOTH",
);
},
{
closed = 1;
nodes = (
"500.0 -500.0 LINE",
"500.0 0.0 LINE",
"500.0 -276.0 OFFCURVE",
"276.0 -500.0 OFFCURVE",
"0.0 -500.0 CURVE SMOOTH",
);
},
{
closed = 1;
nodes = (
"276.0 500.0 OFFCURVE",
"500.0 276.0 OFFCURVE",
"500.0 0.0 CURVE SMOOTH",
"500.0 500.0 LINE",
"0.0 500.0 LINE",
);
},
);
width = 1000;
},
);
},
{
glyphname = "half-width-triangle-10";
layers = (
{
layerId = fs2540309;
name = Regular;
paths = (
{
closed = 1;
nodes = (
"-500.0 -500.0 LINE",
"500.0 -500.0 LINE",
"500.0 0.0 LINE",
);
},
);
width = 1000;
},
);
},
{
glyphname = "inverted-half-width-triangle-6";
layers = (
{
layerId = fs2540309;
name = Regular;
paths = (
{
closed = 1;
nodes = (
"500.0 500.0 LINE",
"-500.0 0.0 LINE",
"-500.0 -500.0 LINE",
"500.0 -500.0 LINE",
);
},
);
width = 1000;
},
);
},
{
glyphname = "half-width-triangle-plus-half-width-square-3";
layers = (
{
layerId = fs2540309;
name = Regular;
paths = (
{
closed = 1;
nodes = (
"500.0 500.0 LINE",
"-500.0 500.0 LINE",
"-500.0 0.0 LINE",
);
},
{
closed = 1;
nodes = (
"-500.0 -500.0 LINE",
"500.0 -500.0 LINE",
"500.0 0.0 LINE",
"-500.0 0.0 LINE",
);
},
);
width = 1000;
},
);
},
{
glyphname = "half-width-triangle-plus-half-width-square-5";
layers = (
{
layerId = fs2540309;
name = Regular;
paths = (
{
closed = 1;
nodes = (
"-500.0 0.0 LINE",
"-500.0 -500.0 LINE",
"500.0 -500.0 LINE",
);
},
{
closed = 1;
nodes = (
"-500.0 0.0 LINE",
"500.0 0.0 LINE",
"500.0 500.0 LINE",
"-500.0 500.0 LINE",
);
},
);
width = 1000;
},
);
},
{
glyphname = "single-quarter-square-1";
layers = (
{
layerId = fs2540309;
name = Regular;
paths = (
{
closed = 1;
nodes = (
"-500.0 0.0 LINE",
"0.0 0.0 LINE",
"0.0 500.0 LINE",
"-500.0 500.0 LINE",
);
},
);
width = 1000;
},
);
},
{
glyphname = "inverted-half-width-triangle-8";
layers = (
{
layerId = fs2540309;
name = Regular;
paths = (
{
closed = 1;
nodes = (
"-500.0 -500.0 LINE",
"500.0 0.0 LINE",
"500.0 500.0 LINE",
"-500.0 500.0 LINE",
);
},
);
width = 1000;
},
);
},
{
glyphname = "opposite-half-width-triangle-3";
layers = (
{
layerId = fs2540309;
name = Regular;
paths = (
{
closed = 1;
nodes = (
"500.0 -500.0 LINE",
"500.0 500.0 LINE",
"0.0 500.0 LINE",
);
},
{
closed = 1;
nodes = (
"-500.0 500.0 LINE",
"-500.0 -500.0 LINE",
"0.0 -500.0 LINE",
);
},
);
width = 1000;
},
);
},
{
glyphname = "inverse-triple-rounded-block-2";
layers = (
{
layerId = fs2540309;
name = Regular;
paths = (
{
closed = 1;
nodes = (
"500.0 500.0 LINE",
"0.0 500.0 LINE",
"276.0 500.0 OFFCURVE",
"500.0 276.0 OFFCURVE",
"500.0 0.0 CURVE SMOOTH",
);
},
{
closed = 1;
nodes = (
"500.0 -500.0 LINE",
"500.0 0.0 LINE",
"500.0 -276.0 OFFCURVE",
"276.0 -500.0 OFFCURVE",
"0.0 -500.0 CURVE SMOOTH",
);
},
{
closed = 1;
nodes = (
"-500.0 -500.0 LINE",
"0.0 -500.0 LINE",
"-276.0 -500.0 OFFCURVE",
"-500.0 -276.0 OFFCURVE",
"-500.0 0.0 CURVE SMOOTH",
);
},
);
width = 1000;
},
);
},
{
glyphname = "quarter-triangle-5";
layers = (
{
layerId = fs2540309;
name = Regular;
paths = (
{
closed = 1;
nodes = (
"-500.0 0.0 LINE",
"0.0 0.0 LINE",
"0.0 500.0 LINE",
);
},
);
width = 1000;
},
);
},
{
glyphname = "quarter-triangle-10";
layers = (
{
layerId = fs2540309;
name = Regular;
paths = (
{
closed = 1;
nodes = (
"500.0 500.0 LINE",
"0.0 500.0 LINE",
"0.0 0.0 LINE",
);
},
);
width = 1000;
},
);
},
{
glyphname = "quarter-triangle-16";
layers = (
{
layerId = fs2540309;
name = Regular;
paths = (
{
closed = 1;
nodes = (
"0.0 0.0 LINE",
"-500.0 0.0 LINE",
"-500.0 -500.0 LINE",
);
},
);
width = 1000;
},
);
},
{
glyphname = "double-quarter-square-6";
layers = (
{
layerId = fs2540309;
name = Regular;
paths = (
{
closed = 1;
nodes = (
"-500.0 -500.0 LINE",
"0.0 -500.0 LINE",
"0.0 0.0 LINE",
"-500.0 0.0 LINE",
);
},
{
closed = 1;
nodes = (
"0.0 0.0 LINE",
"500.0 0.0 LINE",
"500.0 500.0 LINE",
"0.0 500.0 LINE",
);
},
);
width = 1000;
},
);
},
{
glyphname = "quarter-triangle-7";
layers = (
{
layerId = fs2540309;
name = Regular;
paths = (
{
closed = 1;
nodes = (
"500.0 0.0 LINE",
"0.0 0.0 LINE",
"0.0 -500.0 LINE",
);
},
);
width = 1000;
},
);
},
{
glyphname = "double-quarter-square-5";
layers = (
{
layerId = fs2540309;
name = Regular;
paths = (
{
closed = 1;
nodes = (
"-500.0 0.0 LINE",
"0.0 0.0 LINE",
"0.0 500.0 LINE",
"-500.0 500.0 LINE",
);
},
{
closed = 1;
nodes = (
"0.0 -500.0 LINE",
"500.0 -500.0 LINE",
"500.0 0.0 LINE",
"0.0 0.0 LINE",
);
},
);
width = 1000;
},
);
},
{
glyphname = "quarter-triangle-6";
layers = (
{
layerId = fs2540309;
name = Regular;
paths = (
{
closed = 1;
nodes = (
"0.0 500.0 LINE",
"0.0 0.0 LINE",
"500.0 0.0 LINE",
);
},
);
width = 1000;
},
);
},
{
glyphname = "quarter-triangle-8";
layers = (
{
layerId = fs2540309;
name = Regular;
paths = (
{
closed = 1;
nodes = (
"0.0 -500.0 LINE",
"0.0 0.0 LINE",
"-500.0 0.0 LINE",
);
},
);
width = 1000;
},
);
},
{
glyphname = "half-width-triangle-2";
layers = (
{
layerId = fs2540309;
name = Regular;
paths = (
{
closed = 1;
nodes = (
"-500.0 0.0 LINE",
"-500.0 -500.0 LINE",
"500.0 -500.0 LINE",
);
},
);
width = 1000;
},
);
},
);
disablesNiceNames = 1;
instances = (
{
name = Regular;
},
);
manufacturer = "https://fontstruct.com";
manufacturerURL = "https://www.fontstruct.com";
unitsPerEm = 2048;
versionMajor = 1;
versionMinor = 0;
kerning = {
fs2540309 = ();
};
}